<?xml version="1.0" encoding="UTF-8" standalone="no"?>
<!-- Created with Inkscape (http://www.inkscape.org/) -->

<svg
   width="128"
   height="128"
   viewBox="0 0 128 128"
   id="svg2"
   version="1.1"
   inkscape:version="1.2.1 (9c6d41e410, 2022-07-14)"
   sodipodi:docname="plugin.svg"
   xml:space="preserve"
   inkscape:export-filename="plugin.png"
   inkscape:export-xdpi="218"
   inkscape:export-ydpi="218"
   xmlns:inkscape="http://www.inkscape.org/namespaces/inkscape"
   xmlns:sodipodi="http://sodipodi.sourceforge.net/DTD/sodipodi-0.dtd"
   xmlns:xlink="http://www.w3.org/1999/xlink"
   xmlns="http://www.w3.org/2000/svg"
   xmlns:svg="http://www.w3.org/2000/svg"
   xmlns:rdf="http://www.w3.org/1999/02/22-rdf-syntax-ns#"
   xmlns:cc="http://creativecommons.org/ns#"
   xmlns:dc="http://purl.org/dc/elements/1.1/"><defs
     id="defs4"><linearGradient
       inkscape:collect="always"
       id="linearGradient4151"><stop
         style="stop-color:#5280e7;stop-opacity:1"
         offset="0"
         id="stop4153" /><stop
         id="stop4159"
         offset="1"
         style="stop-color:#123380;stop-opacity:1" /></linearGradient><linearGradient
       inkscape:collect="always"
       xlink:href="#linearGradient4151"
       id="linearGradient4157"
       x1="1.0000004"
       y1="63.998547"
       x2="68.255035"
       y2="63.998665"
       gradientUnits="userSpaceOnUse"
       gradientTransform="matrix(1.7847467,0,0,1.7847467,-1.7847468,870.14186)" /><linearGradient
       inkscape:collect="always"
       id="linearGradient4173"><stop
         style="stop-color:#1eae67;stop-opacity:1;"
         offset="0"
         id="stop4175" /><stop
         style="stop-color:#00e573;stop-opacity:1;"
         offset="1"
         id="stop4177" /></linearGradient><linearGradient
       inkscape:collect="always"
       xlink:href="#linearGradient4173"
       id="linearGradient4179-5"
       x1="177.95834"
       y1="299.05942"
       x2="177.95834"
       y2="37.274551"
       gradientUnits="userSpaceOnUse"
       gradientTransform="matrix(0.16641514,0,0,0.16641514,240.72475,233.47106)" /></defs><sodipodi:namedview
     id="base"
     pagecolor="#ffffff"
     bordercolor="#666666"
     borderopacity="1.0"
     inkscape:pageopacity="0.0"
     inkscape:pageshadow="2"
     inkscape:zoom="2.8284271"
     inkscape:cx="151.14407"
     inkscape:cy="116.31907"
     inkscape:document-units="px"
     inkscape:current-layer="g5"
     showgrid="false"
     units="px"
     inkscape:window-width="1920"
     inkscape:window-height="1017"
     inkscape:window-x="1352"
     inkscape:window-y="-8"
     inkscape:window-maximized="1"
     inkscape:showpageshadow="0"
     inkscape:pagecheckerboard="1"
     inkscape:deskcolor="#d1d1d1"
     showguides="true"><sodipodi:guide
       position="64,63.5"
       orientation="-1,0"
       id="guide15685"
       inkscape:locked="false"
       inkscape:label=""
       inkscape:color="rgb(0,134,229)" /><sodipodi:guide
       position="64,63.5"
       orientation="0,-1"
       id="guide15687"
       inkscape:locked="false" /></sodipodi:namedview><metadata
     id="metadata7"><rdf:RDF><cc:Work
         rdf:about=""><dc:format>image/svg+xml</dc:format><dc:type
           rdf:resource="http://purl.org/dc/dcmitype/StillImage" /><dc:creator><cc:Agent><dc:title>Kovid Goyal</dc:title></cc:Agent></dc:creator><dc:rights><cc:Agent><dc:title /></cc:Agent></dc:rights><dc:publisher><cc:Agent><dc:title /></cc:Agent></dc:publisher><cc:license
           rdf:resource="http://creativecommons.org/licenses/by-sa/4.0/" /></cc:Work><cc:License
         rdf:about="http://creativecommons.org/licenses/by-sa/4.0/"><cc:permits
           rdf:resource="http://creativecommons.org/ns#Reproduction" /><cc:permits
           rdf:resource="http://creativecommons.org/ns#Distribution" /><cc:requires
           rdf:resource="http://creativecommons.org/ns#Notice" /><cc:requires
           rdf:resource="http://creativecommons.org/ns#Attribution" /><cc:permits
           rdf:resource="http://creativecommons.org/ns#DerivativeWorks" /><cc:requires
           rdf:resource="http://creativecommons.org/ns#ShareAlike" /></cc:License></rdf:RDF></metadata><g
     inkscape:label="Layer 1"
     inkscape:groupmode="layer"
     id="layer1"
     transform="translate(0,-924.36216)"><path
       inkscape:connector-curvature="0"
       d="M 119.74511,978.69698 C 116.87495,948.25814 91.198401,924.36216 60.015215,924.36216 26.923351,924.36216 0,951.27506 0,984.36304 c 0,33.08746 26.923351,59.99916 60.015215,59.99916 31.183186,0 56.859735,-23.8947 59.729895,-54.33457 0,0 0.29338,-3.10368 0.28809,-5.66438 -0.005,-2.5607 -0.31508,-4.53566 -0.28809,-5.66627 z M 41.301342,938.12435 c -3.527891,4.6912 -6.480557,10.68881 -8.665337,17.66022 -6.841915,1.88864 -12.870773,4.4544 -17.830747,7.56859 5.313961,-11.40505 14.789129,-20.47265 26.496084,-25.22881 z m -30.732874,39.70882 c 3.425107,-5.22897 10.523758,-9.75153 19.779528,-12.89372 -0.982681,4.98605 -1.593869,10.30689 -1.799436,15.87548 H 10.273486 c 0.07336,-1.00355 0.170099,-1.99962 0.294982,-2.98176 z m 0.206039,14.35133 c -0.174739,-1.09349 -0.354452,-2.1765 -0.455843,-3.29106 h 18.229903 c 0.205584,5.56144 0.816755,10.88802 1.799431,15.88326 -9.078307,-3.0836 -16.088007,-7.50264 -19.573491,-12.5922 z m 4.694953,14.577 c 4.827222,2.9275 10.627919,5.3705 17.166553,7.1627 1.969986,6.2834 4.553908,11.7896 7.631487,16.2515 -10.759755,-4.6558 -19.536623,-12.9979 -24.79804,-23.4142 z m 40.502563,26.9267 c -5.306607,-2.1484 -10.443108,-8.4044 -14.11019,-17.7051 4.479677,0.7524 9.217037,1.2006 14.11019,1.3648 z m 0,-24.405 c -5.932073,-0.2259 -11.616613,-0.9585 -16.871587,-2.0941 -1.341272,-5.4605 -2.229471,-11.59807 -2.479281,-18.29566 h 19.350868 z m 0,-28.46827 H 36.620692 c 0.24981,-6.69779 1.138005,-12.82786 2.479299,-18.29526 5.254953,-1.13525 10.939497,-1.85811 16.871569,-2.09404 v 20.3893 z m 0,-28.45399 c -4.893153,0.16944 -9.63096,0.61929 -14.11019,1.37153 3.667082,-9.30262 8.804045,-15.56656 14.11019,-17.6979 z m 49.255457,10.99169 c -4.95999,-3.11403 -10.988846,-5.67977 -17.83076,-7.5684 -2.184764,-6.97142 -5.136968,-12.96923 -8.663019,-17.66024 11.705102,4.75652 21.179801,13.82412 26.493779,25.22864 z M 64.060718,936.03457 c 5.307051,2.13134 10.443106,8.39528 14.110655,17.6979 -4.479699,-0.75264 -9.217505,-1.2015 -14.110655,-1.37153 z m 0,24.39106 c 5.934818,0.23592 11.61706,0.95879 16.872034,2.09404 1.350961,5.4674 2.226257,11.59747 2.479296,18.29526 h -19.35133 z m 0,28.46781 h 19.35133 c -0.253039,6.69759 -1.128335,12.83516 -2.479296,18.29566 -5.254974,1.1356 -10.937216,1.8683 -16.872034,2.0941 z m 0,44.79476 v -16.3403 c 4.89315,-0.1642 9.630956,-0.6124 14.110655,-1.3648 -3.667103,9.3004 -8.803604,15.5567 -14.110655,17.7051 z m 15.705433,-3.5121 c 3.084041,-4.4623 5.668429,-9.9685 7.631025,-16.2515 6.539096,-1.7991 12.339329,-4.2351 17.167034,-7.1626 -5.262345,10.4158 -14.038767,18.7579 -24.798059,23.4141 z m 29.490229,-37.9916 c -3.48135,5.09008 -10.493333,9.5016 -19.557364,12.5859 0.968404,-4.98894 1.587405,-10.31552 1.787923,-15.87696 h 18.227141 c -0.10334,1.11456 -0.27794,2.19757 -0.4577,3.29106 z M 91.486939,980.81493 c -0.200518,-5.56859 -0.819519,-10.88943 -1.787923,-15.87548 9.241472,3.14898 16.340584,7.6653 19.765704,12.89372 0.12493,0.98214 0.22126,1.97821 0.295,2.98176 z"
       id="path3"
       style="fill:url(#linearGradient4157);fill-opacity:1;stroke-width:1.78474"
       inkscape:label="path3"
       sodipodi:nodetypes="csssczcccccccccccccccccccccccccccccccccccccccccccccccccccccccccccccccccccccccccc" /><g
       id="g5"
       transform="matrix(0.30585366,0,0,0.30585366,25.000176,961.11959)"><path
         inkscape:connector-curvature="0"
         id="path7"
         d="m 158.533,115.354 30.688,-6.307 103.708,-21.312 15.451,-3.178 c -4.937,9.036 -4.73,21.402 -3.913,29.35 0.179,1.798 0.385,3.44 0.585,4.688 L 288.14,122.8 157.243,155.363 Z m -131.823,31.983 15.449,3.178 99.597,20.474 8.701,1.782 v 0 0 l 26.093,5.363 1.287,40.01 L 43.303,184.673 30.04,181.377 c 0.195,-1.25 0.401,-2.89 0.588,-4.693 0.812,-7.942 1.023,-20.311 -3.918,-29.347 z m -6.002,-50.58 c -0.187,-8.743 1.371,-15.066 4.52,-18.28 2.004,-2.052 4.369,-2.479 5.991,-2.479 0.857,0 1.474,0.119 1.516,0.119 l 79.607,25.953 39.717,12.949 -1.303,40.289 -111.422,-31.238 -5.88,-1.647 C 33.238,122.362 32.945,122.32 32.719,122.31 32.26,122.277 21.244,121.263 20.708,96.757 Z M 140.579,280.866 23.28,247.98 c -0.217,-0.063 -0.507,-0.105 -0.733,-0.116 -0.467,-0.031 -11.488,-1.044 -12.021,-25.544 -0.19,-8.754 1.376,-15.071 4.519,-18.288 2.009,-2.052 4.375,-2.479 5.994,-2.479 0.859,0 1.474,0.115 1.519,0.115 0,0 0.005,0 0,0 l 119.316,38.908 z m 153.705,-41.407 c 0.185,1.804 0.391,3.443 0.591,4.693 l -147.812,36.771 1.292,-40.01 31.601,-6.497 6.42395,-1.38092 15.73505,-3.17508 80.631,-16.569 15.457,-3.18 c -4.942,9.035 -4.737,21.406 -3.919,29.348 z m 8.142,-54.375 c -0.269,0.006 -0.538,0.042 -0.791,0.122 l -11.148,3.121 -106.148,29.764 -1.298,-40.289 34.826,-11.359 84.327,-27.501 c 0.011,-0.005 4.436,-0.988 7.684,2.315 3.144,3.214 4.704,9.537 4.52,18.28 -0.55,24.498 -11.571,25.516 -11.972,25.547 z"
         style="fill:#ffffff;fill-opacity:1"
         sodipodi:nodetypes="cccccccccccccccccccccccscccccccccccccscccccccccccccccccccccccc" /><path
         inkscape:connector-curvature="0"
         id="path7-0"
         d="m 311.175,115.775 c -1.355,-10.186 -1.546,-27.73 7.915,-33.621 0.169,-0.108 0.295,-0.264 0.443,-0.398 7.735,-2.474 13.088,-5.946 8.886,-10.618 L 214.317,36.758 29.56,62.445 c 0,0 -21.157,3.024 -19.267,35.894 1.026,17.89 6.637,26.676 11.544,31 l -15.161,4.569 c -4.208,4.672 1.144,8.145 8.88,10.615 0.147,0.138 0.271,0.293 0.443,0.401 9.455,5.896 9.273,23.438 7.913,33.626 -33.967,9.645 -21.774,12.788 -21.774,12.788 l 7.451,1.803 c -5.241,4.736 -10.446,13.717 -9.471,30.75 1.891,32.864 19.269,35.132 19.269,35.132 l 120.904,39.298 182.49,-44.202 c 0,0 12.197,-3.148 -21.779,-12.794 -1.366,-10.172 -1.556,-27.712 7.921,-33.623 0.174,-0.105 0.301,-0.264 0.442,-0.396 7.736,-2.474 13.084,-5.943 8.881,-10.615 l -7.932,-2.395 c 5.29,-3.19 13.236,-11.527 14.481,-33.183 0.859,-14.896 -3.027,-23.62 -7.525,-28.756 l 15.678,-3.794 c 0.001,0.006 12.198,-3.142 -21.773,-12.788 z m -152.642,-0.421 30.688,-6.307 103.708,-21.312 15.451,-3.178 c -4.937,9.036 -4.73,21.402 -3.913,29.35 0.179,1.798 0.385,3.44 0.585,4.688 L 288.14,122.8 157.243,155.363 Z m -131.823,31.983 15.449,3.178 99.597,20.474 8.701,1.782 v 0 0 l 26.093,5.363 1.287,40.01 L 43.303,184.673 30.04,181.377 c 0.195,-1.25 0.401,-2.89 0.588,-4.693 0.812,-7.942 1.023,-20.311 -3.918,-29.347 z m -6.002,-50.58 c -0.187,-8.743 1.371,-15.066 4.52,-18.28 2.004,-2.052 4.369,-2.479 5.991,-2.479 0.857,0 1.474,0.119 1.516,0.119 l 79.607,25.953 39.717,12.949 -1.303,40.289 -111.422,-31.238 -5.88,-1.647 C 33.238,122.362 32.945,122.32 32.719,122.31 32.26,122.277 21.244,121.263 20.708,96.757 Z M 140.579,280.866 23.28,247.98 c -0.217,-0.063 -0.507,-0.105 -0.733,-0.116 -0.467,-0.031 -11.488,-1.044 -12.021,-25.544 -0.19,-8.754 1.376,-15.071 4.519,-18.288 2.009,-2.052 4.375,-2.479 5.994,-2.479 0.859,0 1.474,0.115 1.519,0.115 0,0 0.005,0 0,0 l 119.316,38.908 z m 153.705,-41.407 c 0.185,1.804 0.391,3.443 0.591,4.693 l -147.812,36.771 1.292,-40.01 31.601,-6.497 6.42395,-1.38092 15.73505,-3.17508 80.631,-16.569 15.457,-3.18 c -4.942,9.035 -4.737,21.406 -3.919,29.348 z m 8.142,-54.375 c -0.269,0.006 -0.538,0.042 -0.791,0.122 l -11.148,3.121 -106.148,29.764 -1.298,-40.289 34.826,-11.359 84.327,-27.501 c 0.011,-0.005 4.436,-0.988 7.684,2.315 3.144,3.214 4.704,9.537 4.52,18.28 -0.55,24.498 -11.571,25.516 -11.972,25.547 z"
         style="fill:url(#linearGradient4179-5);fill-opacity:1;stroke-width:0.166415"
         sodipodi:nodetypes="ccccccccccccccccccccccccccccccccccccccccccccccccccscccccccccccccscccccccccccccccccccccccc" /></g><text
       xml:space="preserve"
       style="font-style:normal;font-variant:normal;font-weight:normal;font-stretch:normal;font-size:34.6667px;line-height:125%;font-family:Rubik;-inkscape-font-specification:Rubik;text-align:center;letter-spacing:0px;word-spacing:0px;text-anchor:middle;display:none;fill:#f08e07;fill-opacity:1;stroke:none;stroke-width:1px;stroke-linecap:butt;stroke-linejoin:miter;stroke-opacity:1"
       x="64.017349"
       y="1041.5609"
       id="text13368-4-5-8"><tspan
         sodipodi:role="line"
         id="tspan13366-8-3-2"
         x="64.017357"
         y="1041.5609"><tspan
   style="font-style:normal;font-variant:normal;font-weight:normal;font-stretch:normal;font-size:34.6667px;font-family:Comfortaa;-inkscape-font-specification:Comfortaa;fill:#f08e07;fill-opacity:1"
   id="tspan15681">&lt;</tspan>OPDS<tspan
   style="font-style:normal;font-variant:normal;font-weight:normal;font-stretch:normal;font-size:34.6667px;font-family:Comfortaa;-inkscape-font-specification:Comfortaa;fill:#f08e07;fill-opacity:1"
   id="tspan15683">&gt;</tspan></tspan></text></g></svg>
